<svg width="504.301" height="96" viewBox="0 0 504.301 96" xmlns="http://www.w3.org/2000/svg"><g id="svgGroup" stroke-linecap="round" fill-rule="evenodd" font-size="9pt" stroke="#ffffff" stroke-width="0.5mm" fill="none" style="stroke:#ffffff;stroke-width:0.5mm;fill:none"><path d="M 95.8 74 L 86.8 74 L 86.8 22 L 95.5 22 L 95.5 30.7 Q 98.3 26.5 102.6 23.65 A 17.205 17.205 0 0 1 111.802 20.809 A 20.858 20.858 0 0 1 112.4 20.8 A 20.994 20.994 0 0 1 116.817 21.24 Q 119.803 21.882 122.085 23.463 A 13.128 13.128 0 0 1 122.55 23.8 A 15.751 15.751 0 0 1 127.998 31.489 A 19.154 19.154 0 0 1 128.1 31.8 Q 131.2 27.2 135.45 24 A 15.669 15.669 0 0 1 142.241 21.116 A 21.446 21.446 0 0 1 146 20.8 A 21.437 21.437 0 0 1 150.888 21.322 Q 154.474 22.162 156.963 24.351 A 12.994 12.994 0 0 1 158.65 26.15 A 18.992 18.992 0 0 1 162.061 33.422 Q 162.8 36.472 162.8 40.1 L 162.8 74 L 153.8 74 L 153.8 40.8 A 19.042 19.042 0 0 0 153.463 37.111 Q 153.027 34.905 152.028 33.161 A 10.982 10.982 0 0 0 151.3 32.05 A 7.974 7.974 0 0 0 145.487 28.754 A 10.678 10.678 0 0 0 144.4 28.7 A 11.926 11.926 0 0 0 137.641 30.827 A 15.996 15.996 0 0 0 136.05 32.05 Q 132.2 35.4 129.3 39.9 L 129.3 74 L 120.3 74 L 120.3 40.8 A 19.042 19.042 0 0 0 119.963 37.111 Q 119.527 34.905 118.528 33.161 A 10.982 10.982 0 0 0 117.8 32.05 A 7.974 7.974 0 0 0 111.987 28.754 A 10.678 10.678 0 0 0 110.9 28.7 A 12.02 12.02 0 0 0 104.581 30.528 A 16.244 16.244 0 0 0 102.6 31.95 Q 98.7 35.2 95.8 39.6 L 95.8 74 Z M 395.7 74 L 386.2 74 L 386.2 4 L 395.7 4 L 395.7 33.9 L 430.2 33.9 L 430.2 4 L 439.7 4 L 439.7 74 L 430.2 74 L 430.2 42.1 L 395.7 42.1 L 395.7 74 Z M 0 68.1 L 4.8 60.1 Q 8.4 63.1 12.9 65 A 23.348 23.348 0 0 0 18.27 66.51 A 32.118 32.118 0 0 0 23.4 66.9 A 27.981 27.981 0 0 0 27.947 66.554 Q 30.37 66.154 32.331 65.293 A 13.701 13.701 0 0 0 34.8 63.9 Q 38.848 61.008 38.995 56.166 A 12.116 12.116 0 0 0 39 55.8 A 11.94 11.94 0 0 0 38.663 52.907 A 9.816 9.816 0 0 0 37.8 50.65 A 8.097 8.097 0 0 0 36.6 48.994 Q 35.33 47.613 33.184 46.271 A 25.81 25.81 0 0 0 33.15 46.25 Q 30.034 44.308 24.265 42.08 A 118.584 118.584 0 0 0 23 41.6 Q 15.8 38.8 11.5 35.95 A 21.931 21.931 0 0 1 8.411 33.502 Q 6.694 31.853 5.638 29.987 A 13.303 13.303 0 0 1 5.35 29.45 Q 3.5 25.8 3.5 20.8 Q 3.5 15.8 6.25 11.75 Q 9 7.7 14.35 5.25 A 25.558 25.558 0 0 1 20.25 3.415 Q 23.493 2.8 27.3 2.8 Q 33.5 2.8 38.45 4.05 Q 43.4 5.3 48.1 7.6 L 44.6 15.7 A 31.496 31.496 0 0 0 40.474 13.681 A 41.686 41.686 0 0 0 36.65 12.35 Q 32.1 11 27.1 11 A 27.187 27.187 0 0 0 23.07 11.28 Q 20.938 11.6 19.2 12.287 A 12.616 12.616 0 0 0 16.7 13.6 A 9.902 9.902 0 0 0 14.537 15.565 A 7.359 7.359 0 0 0 12.9 20.3 A 10.464 10.464 0 0 0 13.192 22.822 A 8.562 8.562 0 0 0 14 24.9 Q 15.056 26.819 18.091 28.647 A 23.503 23.503 0 0 0 18.35 28.8 A 33.003 33.003 0 0 0 20.566 29.972 Q 22.835 31.075 26.046 32.323 A 130.016 130.016 0 0 0 28.1 33.1 A 81.228 81.228 0 0 1 33.078 35.129 Q 37.464 37.1 40.45 39.2 A 26.044 26.044 0 0 1 43.49 41.677 Q 45.713 43.806 46.9 46.15 A 17.579 17.579 0 0 1 48.641 52.013 A 22.155 22.155 0 0 1 48.8 54.7 A 21.71 21.71 0 0 1 48.133 60.201 A 17.105 17.105 0 0 1 45.55 65.8 Q 42.3 70.4 36.55 72.8 A 30.521 30.521 0 0 1 29.14 74.804 A 40.027 40.027 0 0 1 23.4 75.2 Q 16.1 75.2 10.1 73.25 A 38.206 38.206 0 0 1 4.733 71.068 A 28.433 28.433 0 0 1 0 68.1 Z M 189.2 96 L 180.2 96 L 180.2 35.3 A 11.015 11.015 0 0 0 180.073 33.564 Q 179.742 31.498 178.55 30.45 A 5.718 5.718 0 0 0 175.76 29.128 A 7.991 7.991 0 0 0 174.3 29 L 176.2 22 Q 182.062 22 185.122 24.964 A 10.15 10.15 0 0 1 187.7 29.3 Q 188.655 27.867 190.752 25.977 A 38.58 38.58 0 0 1 190.95 25.8 A 18.902 18.902 0 0 1 193.651 23.816 A 25.569 25.569 0 0 1 196.55 22.3 A 16.955 16.955 0 0 1 201.109 21.011 A 21.886 21.886 0 0 1 204.2 20.8 Q 210.2 20.8 215.45 23.95 A 22.329 22.329 0 0 1 222.628 30.917 A 27.464 27.464 0 0 1 223.9 33.05 Q 227.1 39 227.1 47.5 Q 227.1 55.8 223.9 62.05 A 27.846 27.846 0 0 1 219.966 67.882 A 23.029 23.029 0 0 1 215.55 71.75 Q 210.4 75.2 204.4 75.2 Q 199.8 75.2 195.8 73.35 A 30.352 30.352 0 0 1 192.384 71.511 Q 190.591 70.384 189.2 69.1 L 189.2 96 Z M 314.8 51.7 L 278.4 51.7 A 24.088 24.088 0 0 0 279.539 56.725 Q 280.875 60.538 283.5 63.1 Q 287.7 67.2 294.6 67.2 Q 299.1 67.2 302.7 66.25 Q 306.3 65.3 309.6 63.8 L 311.7 71.5 A 40.77 40.77 0 0 1 307.365 73.126 A 51.863 51.863 0 0 1 303.6 74.15 A 38.914 38.914 0 0 1 298.508 74.969 A 52.025 52.025 0 0 1 293.5 75.2 A 28.318 28.318 0 0 1 285.754 74.195 A 21.108 21.108 0 0 1 275.75 68.05 A 23.521 23.521 0 0 1 270.545 58.51 Q 269.2 53.845 269.2 48 A 35.359 35.359 0 0 1 270.033 40.178 A 28.84 28.84 0 0 1 272.15 34.05 A 24.642 24.642 0 0 1 277.166 26.968 A 22.887 22.887 0 0 1 280.4 24.35 A 21.048 21.048 0 0 1 290.659 20.878 A 26.205 26.205 0 0 1 292.7 20.8 Q 300.2 20.8 305.15 24.05 Q 310.1 27.3 312.6 32.8 A 28.185 28.185 0 0 1 315.026 42.664 A 33.434 33.434 0 0 1 315.1 44.9 A 75.204 75.204 0 0 1 314.809 51.597 A 69.426 69.426 0 0 1 314.8 51.7 Z M 337.6 74 L 328.1 74 L 328.1 4.2 Q 332.2 3.7 337.15 3.45 A 200.806 200.806 0 0 1 346.08 3.204 A 221.966 221.966 0 0 1 347.4 3.2 Q 354.97 3.2 360.572 5.282 A 26.011 26.011 0 0 1 362.2 5.95 A 24.606 24.606 0 0 1 367.282 8.979 A 19.374 19.374 0 0 1 371.5 13.5 Q 374.7 18.3 374.7 24.5 A 25.258 25.258 0 0 1 373.992 30.622 A 19.268 19.268 0 0 1 371 37.2 A 22.312 22.312 0 0 1 363.449 43.83 A 28.065 28.065 0 0 1 360.7 45.15 A 34.774 34.774 0 0 1 352.611 47.374 A 47.194 47.194 0 0 1 345.4 47.9 Q 341.2 47.9 337.6 47.6 L 337.6 74 Z M 467.2 74 L 457.7 74 L 457.7 4.2 Q 461.8 3.7 466.75 3.45 A 200.806 200.806 0 0 1 475.68 3.204 A 221.966 221.966 0 0 1 477 3.2 Q 484.57 3.2 490.172 5.282 A 26.011 26.011 0 0 1 491.8 5.95 A 24.606 24.606 0 0 1 496.882 8.979 A 19.374 19.374 0 0 1 501.1 13.5 Q 504.3 18.3 504.3 24.5 A 25.258 25.258 0 0 1 503.592 30.622 A 19.268 19.268 0 0 1 500.6 37.2 A 22.312 22.312 0 0 1 493.049 43.83 A 28.065 28.065 0 0 1 490.3 45.15 A 34.774 34.774 0 0 1 482.211 47.374 A 47.194 47.194 0 0 1 475 47.9 Q 470.8 47.9 467.2 47.6 L 467.2 74 Z M 239.1 57.7 L 239.1 0 L 248.1 0 L 248.1 56.8 A 20.644 20.644 0 0 0 248.288 59.688 Q 248.75 62.952 250.35 64.8 A 7.363 7.363 0 0 0 254.934 67.276 A 10.724 10.724 0 0 0 256.6 67.4 Q 258.5 67.4 260.35 66.95 A 22.192 22.192 0 0 0 261.813 66.544 Q 262.748 66.247 263.5 65.9 L 265.7 73.2 Q 264.301 73.822 262.388 74.323 A 34.978 34.978 0 0 1 261.25 74.6 A 23.816 23.816 0 0 1 258.095 75.085 A 30.514 30.514 0 0 1 255.4 75.2 A 20.862 20.862 0 0 1 250.51 74.646 A 17.544 17.544 0 0 1 247.1 73.45 A 12.683 12.683 0 0 1 241.775 68.685 A 15.856 15.856 0 0 1 241.25 67.8 Q 239.516 64.654 239.18 60.012 A 32.105 32.105 0 0 1 239.1 57.7 Z M 70.8 74 L 61.8 74 L 61.8 22 L 70.8 22 L 70.8 74 Z M 189.2 35.4 L 189.2 61 Q 191.8 63.7 195.2 65.45 Q 198.6 67.2 202.6 67.2 Q 209.294 67.2 213.517 62.016 A 17.38 17.38 0 0 0 213.65 61.85 A 18.792 18.792 0 0 0 217.144 54.544 Q 217.805 51.855 217.888 48.708 A 34.555 34.555 0 0 0 217.9 47.8 Q 217.9 41.8 215.75 37.5 Q 213.6 33.2 210.05 30.9 Q 206.5 28.6 202.2 28.6 A 14.741 14.741 0 0 0 196.573 29.663 A 14.054 14.054 0 0 0 194.45 30.75 Q 191 32.9 189.2 35.4 Z M 337.6 11.6 L 337.6 39.5 Q 338.7 39.637 340.131 39.751 A 96.255 96.255 0 0 0 341.5 39.85 Q 343.8 40 346.6 40 A 31.831 31.831 0 0 0 351.98 39.574 Q 354.859 39.08 357.163 38.011 A 15.221 15.221 0 0 0 360.4 36 A 12.896 12.896 0 0 0 365.255 26.558 A 17.32 17.32 0 0 0 365.3 25.3 A 14.452 14.452 0 0 0 364.539 20.507 A 12.136 12.136 0 0 0 360.6 15 A 15.462 15.462 0 0 0 355.519 12.336 Q 353.293 11.626 350.6 11.36 A 34.58 34.58 0 0 0 347.2 11.2 A 131.125 131.125 0 0 0 343.942 11.239 A 109.939 109.939 0 0 0 342.1 11.3 A 91.274 91.274 0 0 0 339.217 11.464 A 75.041 75.041 0 0 0 337.6 11.6 Z M 467.2 11.6 L 467.2 39.5 Q 468.3 39.637 469.731 39.751 A 96.255 96.255 0 0 0 471.1 39.85 Q 473.4 40 476.2 40 A 31.831 31.831 0 0 0 481.58 39.574 Q 484.459 39.08 486.763 38.011 A 15.221 15.221 0 0 0 490 36 A 12.896 12.896 0 0 0 494.855 26.558 A 17.32 17.32 0 0 0 494.9 25.3 A 14.452 14.452 0 0 0 494.139 20.507 A 12.136 12.136 0 0 0 490.2 15 A 15.462 15.462 0 0 0 485.119 12.336 Q 482.893 11.626 480.2 11.36 A 34.58 34.58 0 0 0 476.8 11.2 A 131.125 131.125 0 0 0 473.542 11.239 A 109.939 109.939 0 0 0 471.7 11.3 A 91.274 91.274 0 0 0 468.817 11.464 A 75.041 75.041 0 0 0 467.2 11.6 Z M 278.3 44.4 L 306.8 44.4 A 24.355 24.355 0 0 0 306.396 39.815 Q 305.9 37.231 304.796 35.207 A 12.422 12.422 0 0 0 303 32.7 A 12.488 12.488 0 0 0 296.039 28.924 A 18.395 18.395 0 0 0 292.5 28.6 A 13.58 13.58 0 0 0 287.388 29.535 A 12.524 12.524 0 0 0 282.9 32.65 Q 279.1 36.7 278.3 44.4 Z M 61.937 11.288 A 5.973 5.973 0 0 0 66.3 13.1 A 8.175 8.175 0 0 0 67.796 12.969 A 5.647 5.647 0 0 0 70.9 11.35 Q 72.6 9.6 72.6 6.8 A 7.26 7.26 0 0 0 72.6 6.719 A 6.06 6.06 0 0 0 70.75 2.35 A 7.395 7.395 0 0 0 70.692 2.293 A 6.059 6.059 0 0 0 66.3 0.5 A 8.264 8.264 0 0 0 64.644 0.658 A 5.661 5.661 0 0 0 61.7 2.2 A 5.588 5.588 0 0 0 60.229 4.832 A 7.987 7.987 0 0 0 60 6.8 A 5.992 5.992 0 0 0 60.492 9.219 A 6.643 6.643 0 0 0 61.85 11.2 A 7.466 7.466 0 0 0 61.937 11.288 Z" vector-effect="non-scaling-stroke"/></g></svg>